<svg xmlns="http://www.w3.org/2000/svg" width="23.994" height="19.992" viewBox="0 0 23.994 19.992">
  <g id="icon-func-arrow-right-navy" transform="translate(-4 -6.008)">
    <path id="Path_26" data-name="Path 26" d="M23.33,13.34a1.024,1.024,0,0,1-.71-.29L17.28,7.71A1,1,0,1,1,18.69,6.3l5.34,5.34a1,1,0,0,1,0,1.41A.967.967,0,0,1,23.33,13.34Z" fill="#3b3071"/>
    <path id="Path_27" data-name="Path 27" d="M18,26a1.024,1.024,0,0,1-.71-.29,1,1,0,0,1,0-1.41l7.3-7.3H5a1,1,0,0,1,0-2H27a.987.987,0,0,1,.92.62,1.006,1.006,0,0,1-.22,1.09l-9,9A.967.967,0,0,1,18,26Z" fill="#3b3071"/>
  </g>
</svg>
