<svg xmlns="http://www.w3.org/2000/svg" width="13.001" height="13" viewBox="0 0 13.001 13">
  <g id="loupe" transform="translate(-4 -4)">
    <path id="Path_23" data-name="Path 23" d="M9.417,4a5.417,5.417,0,1,0,5.417,5.417A5.426,5.426,0,0,0,9.417,4Zm0,9.75A4.333,4.333,0,1,1,13.75,9.417,4.339,4.339,0,0,1,9.417,13.75Z" transform="translate(0 0)" fill="#ae97fd"/>
    <path id="Path_24" data-name="Path 24" d="M22.93,22.156a.54.54,0,0,0-.764.764l2.167,2.167a.517.517,0,0,0,.379.163.555.555,0,0,0,.385-.157.539.539,0,0,0,0-.764Z" transform="translate(-8.253 -8.249)" fill="#ae97fd"/>
  </g>
</svg>
