<svg id="Stroke" xmlns="http://www.w3.org/2000/svg" width="28.111" height="26.15" viewBox="0 0 28.111 26.15">
  <g id="Group_11" data-name="Group 11">
    <path id="Path_33" data-name="Path 33" d="M27.95,9.94a.978.978,0,0,0-.67-.58L7,3.92a1.98,1.98,0,0,0-1.52.2,2.016,2.016,0,0,0-.93,1.21L1.96,14.99a1.969,1.969,0,0,0,.2,1.52,2.016,2.016,0,0,0,1.21.93L12,19.75V24H4V21a1,1,0,0,0-2,0v8a1,1,0,0,0,2,0V26h9a1,1,0,0,0,1-1V20.29l6.56,1.76a1.153,1.153,0,0,0,.26.03,1.028,1.028,0,0,0,.87-.5L27.9,10.82A1.009,1.009,0,0,0,27.95,9.94Zm-7.61,9.97L3.9,15.51,6.49,5.85l19.03,5.1Z" transform="translate(-1.89 -3.85)" fill="#fff"/>
    <path id="Path_34" data-name="Path 34" d="M29.5,14.14a1,1,0,0,0-1.37.37L26.06,18.1a1,1,0,0,0,1.74,1l2.07-3.59A1.01,1.01,0,0,0,29.5,14.14Z" transform="translate(-1.89 -3.85)" fill="#fff"/>
    <path id="Path_35" data-name="Path 35" d="M8.35,10.49l3.86,1.04a1.153,1.153,0,0,0,.26.03.982.982,0,0,0,.96-.74.994.994,0,0,0-.71-1.22L8.87,8.56a1,1,0,1,0-.52,1.93Z" transform="translate(-1.89 -3.85)" fill="#fff"/>
  </g>
</svg>
