<svg xmlns="http://www.w3.org/2000/svg" width="19.795" height="28" viewBox="0 0 19.795 28">
  <g id="Stroke" transform="translate(-6.205 -2)">
    <g id="Group_13" data-name="Group 13">
      <path id="Path_38" data-name="Path 38" d="M25.88,12.52A1.018,1.018,0,0,0,25,12H17.63l2.33-8.74a1,1,0,0,0-.17-.87A.985.985,0,0,0,19,2H10.95a1,1,0,0,0-.97.74l-3.74,14A1,1,0,0,0,7.21,18H14V29a1,1,0,0,0,.72.96A.947.947,0,0,0,15,30a1,1,0,0,0,.85-.47l10-16A1.013,1.013,0,0,0,25.88,12.52ZM16,25.51V17a1,1,0,0,0-1-1H8.51L11.72,4H17.7l-2.33,8.74a1,1,0,0,0,.17.87.985.985,0,0,0,.79.39h6.86Z" fill="#fff"/>
    </g>
  </g>
</svg>
