<svg xmlns="http://www.w3.org/2000/svg" width="25.913" height="28" viewBox="0 0 25.913 28">
  <g id="request-quote-white" transform="translate(-4 -2)">
    <g id="Group_12" data-name="Group 12">
      <path id="Path_36" data-name="Path 36" d="M23,18a.945.945,0,0,0-1,1v9H6V4H19a.945.945,0,0,0,1-1,.945.945,0,0,0-1-1H6A2.006,2.006,0,0,0,4,4V28a2.006,2.006,0,0,0,2,2H22a2.006,2.006,0,0,0,2-2V19A.945.945,0,0,0,23,18Z" fill="#fff"/>
      <path id="Path_37" data-name="Path 37" d="M24.9,2.9,10.3,17.5a.908.908,0,0,0-.3.7V21a.945.945,0,0,0,1,1h2.8a.908.908,0,0,0,.7-.3L29.1,7.1a2.971,2.971,0,0,0-4.2-4.2Zm2.8,2.8L13.4,20H12V18.6L26.3,4.3a.99.99,0,0,1,1.4,1.4Z" fill="#fff"/>
    </g>
  </g>
</svg>
