<svg xmlns="http://www.w3.org/2000/svg" width="17.988" height="28" viewBox="0 0 17.988 28">
  <g id="locked-white" transform="translate(-7.012 -2)">
    <g id="Group_14" data-name="Group 14">
      <path id="Path_39" data-name="Path 39" d="M16,23a.945.945,0,0,0,1-1V20a1,1,0,0,0-2,0v2A.945.945,0,0,0,16,23Z" fill="#fff"/>
      <path id="Path_40" data-name="Path 40" d="M16,30a8.963,8.963,0,0,0,9-9,9.1,9.1,0,0,0-3-6.7V8A6,6,0,0,0,10,8v6.3A9.006,9.006,0,0,0,9.3,27,9.1,9.1,0,0,0,16,30ZM12,8a4,4,0,0,1,8,0v5a8.693,8.693,0,0,0-8,0Zm4,6a7,7,0,1,1-7,7A6.957,6.957,0,0,1,16,14Z" fill="#fff"/>
    </g>
  </g>
</svg>
