<svg xmlns="http://www.w3.org/2000/svg" width="29.982" height="26" viewBox="0 0 29.982 26">
  <g id="Stroke" transform="translate(-2 -2)">
    <g id="Group_15" data-name="Group 15">
      <path id="Path_41" data-name="Path 41" d="M17,18a1,1,0,0,0-1,1v7H4V8h7.33a1,1,0,0,0,0-2H4A2.006,2.006,0,0,0,2,8V26a2.006,2.006,0,0,0,2,2H16a2.006,2.006,0,0,0,2-2V19A1,1,0,0,0,17,18Z" fill="#fff"/>
      <path id="Path_42" data-name="Path 42" d="M21,2a7,7,0,1,0,7,7A7.008,7.008,0,0,0,21,2Zm0,12a5,5,0,1,1,5-5A5,5,0,0,1,21,14Z" fill="#fff"/>
      <path id="Path_43" data-name="Path 43" d="M28.71,15.29A1,1,0,0,0,27.3,16.7l2.97,2.99a.982.982,0,0,0,.71.29,1.042,1.042,0,0,0,.71-.29,1,1,0,0,0,0-1.41Z" fill="#fff"/>
      <path id="Path_44" data-name="Path 44" d="M6,19a1,1,0,0,0,1,1h6a1,1,0,0,0,0-2H7A1,1,0,0,0,6,19Z" fill="#fff"/>
      <path id="Path_45" data-name="Path 45" d="M7,22a1,1,0,0,0,0,2h4a1,1,0,0,0,0-2Z" fill="#fff"/>
    </g>
  </g>
</svg>
