<svg xmlns="http://www.w3.org/2000/svg" width="24" height="24" viewBox="0 0 24 24">
  <path id="share-white_0" d="M24,20a3.967,3.967,0,0,0-3,1.38l-9.09-4.54A3.861,3.861,0,0,0,12,16a3.7,3.7,0,0,0-.09-.83L21,10.62A3.981,3.981,0,1,0,20,8a3.861,3.861,0,0,0,.09.84L11,13.38a4,4,0,1,0,0,5.24l9.09,4.54A3.861,3.861,0,0,0,20,24a4,4,0,1,0,4-4ZM24,6a2,2,0,1,1-2,2A2.006,2.006,0,0,1,24,6ZM8,18a2,2,0,1,1,2-2A2.006,2.006,0,0,1,8,18Zm16,8a2,2,0,1,1,2-2A2.006,2.006,0,0,1,24,26Z" transform="translate(-4 -4)" fill="#fff"/>
</svg>
