<svg id="Group_3" data-name="Group 3" xmlns="http://www.w3.org/2000/svg" width="103.259" height="55.263" viewBox="0 0 103.259 55.263">
  <g id="Group_1" data-name="Group 1" transform="translate(0 41.182)">
    <path id="Path_1" data-name="Path 1" d="M14.3,529.1a6.922,6.922,0,0,1-3.67,6.109A6.792,6.792,0,0,1,5.978,536a6.961,6.961,0,0,1-5.57-4.568,6.469,6.469,0,0,1-.381-2.962,6.833,6.833,0,0,1,2.158-4.467,6.952,6.952,0,0,1,3.162-1.738,6.953,6.953,0,0,1,1.884-.23,7.157,7.157,0,0,1,4.687,1.8,6.9,6.9,0,0,1,2.05,3.122A6.764,6.764,0,0,1,14.3,529.1Z" transform="translate(0.003 -522.037)" fill="#ff0027"/>
    <path id="Path_2" data-name="Path 2" d="M441.411,536.158a7.123,7.123,0,0,1-6.218-3.608,6.662,6.662,0,0,1-.857-4.279,6.758,6.758,0,0,1,1.919-4,7.02,7.02,0,0,1,3.619-2.015,7.2,7.2,0,0,1,3.832.2,7.01,7.01,0,0,1,4.744,8.033,6.806,6.806,0,0,1-1.3,2.863,7.058,7.058,0,0,1-3.594,2.486,7.489,7.489,0,0,1-2.143.325Z" transform="translate(-400.022 -522.079)" fill="#ff0027"/>
    <path id="Path_3" data-name="Path 3" d="M231.372,528.85a7.181,7.181,0,0,1-12.156,5.3,6.838,6.838,0,0,1-1.943-3.367,6.567,6.567,0,0,1-.2-1.675,7.06,7.06,0,0,1,5.612-6.844,7.081,7.081,0,0,1,6.332,1.647,6.768,6.768,0,0,1,2.143,3.484A5.405,5.405,0,0,1,231.372,528.85Z" transform="translate(-199.948 -522.094)" fill="#ff0027"/>
  </g>
  <g id="Group_2" data-name="Group 2" transform="translate(0.014)">
    <path id="Path_4" data-name="Path 4" d="M21.462,4.56a4.4,4.4,0,0,1-4.774,4.56h-3.04V13.64H11.29V0h5.4A4.4,4.4,0,0,1,21.462,4.56ZM16.4,7.074a2.411,2.411,0,0,0,2.65-2.514A2.412,2.412,0,0,0,16.4,2.046H13.648V7.073H16.4Z" transform="translate(-10.413)" fill="#fff"/>
    <path id="Path_5" data-name="Path 5" d="M162.681,55.956V45.94H164.9v1.442a3.213,3.213,0,0,1,3.118-1.442h.312v2.1h-.215c-1.929,0-3.215.6-3.215,2.981v4.93H162.68Z" transform="translate(-149.86 -42.316)" fill="#fff"/>
    <path id="Path_6" data-name="Path 6" d="M241.97,48.654a5.135,5.135,0,1,1,5.144,5.222A4.952,4.952,0,0,1,241.97,48.654Zm7.99,0c0-1.793-1.052-3.215-2.845-3.215a2.916,2.916,0,0,0-2.864,3.215c0,1.793,1.072,3.254,2.864,3.254S249.96,50.466,249.96,48.654Z" transform="translate(-222.895 -40.041)" fill="#fff"/>
    <path id="Path_7" data-name="Path 7" d="M384.973,23.653c-2.027,0-3.449-1.033-3.449-3.352V15.546H379.79v-1.91h1.734V10.87h2.221v2.767h2.494v1.91h-2.494v4.6a1.394,1.394,0,0,0,1.384,1.559H386.4v1.949h-1.422Z" transform="translate(-349.843 -10.012)" fill="#fff"/>
    <path id="Path_8" data-name="Path 8" d="M484.509,49.229h-7.561a2.736,2.736,0,0,0,2.806,2.708,2.152,2.152,0,0,0,2.3-1.5h2.358c-.273,1.949-2.085,3.429-4.7,3.429a4.925,4.925,0,0,1-5.086-5.222,4.909,4.909,0,0,1,5.106-5.184,4.629,4.629,0,0,1,4.813,4.833c0,.37-.02.741-.039.936Zm-7.464-1.7h5.183a2.4,2.4,0,0,0-2.513-2.143A2.621,2.621,0,0,0,477.046,47.534Z" transform="translate(-437.201 -40.032)" fill="#fff"/>
    <path id="Path_9" data-name="Path 9" d="M615.89,48.654a4.945,4.945,0,0,1,5.164-5.184c2.591,0,4.579,1.579,4.774,3.839H623.47a2.31,2.31,0,0,0-2.436-1.87c-1.812,0-2.864,1.422-2.864,3.215s1.052,3.254,2.864,3.254A2.31,2.31,0,0,0,623.47,50h2.358a4.556,4.556,0,0,1-4.774,3.878A4.987,4.987,0,0,1,615.89,48.654Z" transform="translate(-567.318 -40.041)" fill="#fff"/>
    <path id="Path_10" data-name="Path 10" d="M755.693,23.653c-2.027,0-3.449-1.033-3.449-3.352V15.546H750.51v-1.91h1.734V10.87h2.221v2.767h2.494v1.91h-2.494v4.6a1.394,1.394,0,0,0,1.384,1.559h1.267v1.949h-1.422Z" transform="translate(-691.318 -10.012)" fill="#fff"/>
    <path id="Path_11" data-name="Path 11" d="M846.33,50.884c0-2.26,1.812-3.176,4.267-3.176h2.455V47.2a1.938,1.938,0,0,0-2.1-1.949,2.017,2.017,0,0,0-2.124,1.422h-2.26c.234-2.124,2.124-3.2,4.482-3.2,2.553,0,4.19,1.481,4.19,3.975v3.488c0,.546.273.858.8.858h.234v1.89h-.916c-.936,0-1.812-.234-1.987-1.344a3.973,3.973,0,0,1-3.371,1.539c-2.085,0-3.663-.974-3.663-3Zm6.723-1.169v-.39h-2.689c-.877,0-1.773.409-1.773,1.442s.819,1.422,1.793,1.422A2.39,2.39,0,0,0,853.053,49.715Z" transform="translate(-779.579 -40.05)" fill="#fff"/>
    <path id="Path_12" data-name="Path 12" d="M981.92,50.417l2.143-.02a2.122,2.122,0,0,0,2.338,1.715c.857,0,1.89-.293,1.89-1.306,0-.682-.488-.974-1.579-1.169l-1.754-.312c-1.227-.215-2.845-.721-2.845-2.65,0-1.734,1.578-3.2,4.073-3.2,2.923,0,4.131,1.91,4.15,3.274h-2.143a1.948,1.948,0,0,0-2.085-1.5c-1.149,0-1.812.6-1.812,1.247,0,.565.428.8,1.111.916l2.2.39c1.89.331,2.9,1.286,2.9,2.806,0,2.28-2.046,3.274-4.17,3.274s-4.209-1.052-4.423-3.469Z" transform="translate(-904.472 -40.05)" fill="#fff"/>
    <path id="Path_13" data-name="Path 13" d="M4.321,245.12V233.565H.17V231.48H10.829v2.085H6.679V245.12H4.321Z" transform="translate(-0.17 -213.219)" fill="#fff"/>
    <path id="Path_14" data-name="Path 14" d="M128.369,280.709h-7.561a2.737,2.737,0,0,0,2.806,2.708,2.152,2.152,0,0,0,2.3-1.5h2.358c-.273,1.949-2.085,3.429-4.7,3.429a5.2,5.2,0,0,1,.02-10.406,4.629,4.629,0,0,1,4.813,4.833c0,.37-.02.741-.039.936Zm-7.464-1.7h5.183a2.4,2.4,0,0,0-2.513-2.143A2.621,2.621,0,0,0,120.906,279.014Z" transform="translate(-109.156 -253.251)" fill="#fff"/>
    <path id="Path_15" data-name="Path 15" d="M259.75,280.134a4.945,4.945,0,0,1,5.164-5.184c2.591,0,4.579,1.579,4.774,3.839H267.33a2.31,2.31,0,0,0-2.436-1.87c-1.812,0-2.864,1.422-2.864,3.215s1.052,3.254,2.864,3.254a2.31,2.31,0,0,0,2.436-1.91h2.358a4.556,4.556,0,0,1-4.774,3.878A4.987,4.987,0,0,1,259.75,280.134Z" transform="translate(-239.272 -253.26)" fill="#fff"/>
    <path id="Path_16" data-name="Path 16" d="M408.681,245.12V231.48H410.9v4.833a4.009,4.009,0,0,1,3.293-1.4c2.26,0,3.839,1.559,3.839,4.131v6.08h-2.221v-5.476c0-1.715-.6-2.845-2.241-2.845-1.792,0-2.67,1.344-2.67,3.157v5.164H408.68Z" transform="translate(-376.454 -213.219)" fill="#fff"/>
    <path id="Path_17" data-name="Path 17" d="M552.911,285.161V275.146h2.163v1.208a4.006,4.006,0,0,1,3.332-1.4,3.744,3.744,0,0,1,3.839,4.092v6.118H560v-5.476c0-1.715-.584-2.826-2.221-2.826-1.754,0-2.631,1.325-2.631,3.156v5.144H552.91Z" transform="translate(-509.306 -253.26)" fill="#fff"/>
    <path id="Path_18" data-name="Path 18" d="M690.98,280.134a5.135,5.135,0,1,1,5.144,5.222A4.952,4.952,0,0,1,690.98,280.134Zm7.99,0c0-1.793-1.052-3.215-2.845-3.215a2.916,2.916,0,0,0-2.864,3.215c0,1.793,1.072,3.254,2.864,3.254S698.97,281.946,698.97,280.134Z" transform="translate(-636.484 -253.26)" fill="#fff"/>
    <path id="Path_19" data-name="Path 19" d="M843.12,245.12V231.48h2.221v13.64Z" transform="translate(-776.622 -213.219)" fill="#fff"/>
    <path id="Path_20" data-name="Path 20" d="M893.26,280.134a5.135,5.135,0,1,1,5.144,5.222A4.952,4.952,0,0,1,893.26,280.134Zm7.99,0c0-1.793-1.052-3.215-2.845-3.215a2.916,2.916,0,0,0-2.864,3.215c0,1.793,1.072,3.254,2.864,3.254S901.25,281.946,901.25,280.134Z" transform="translate(-822.806 -253.26)" fill="#fff"/>
    <path id="Path_21" data-name="Path 21" d="M1039.734,285.424h2.26c.293,1.169,1.286,1.617,2.669,1.617,1.792,0,2.708-1.052,2.708-2.9v-.955a3.734,3.734,0,0,1-3.2,1.5,4.864,4.864,0,0,1,0-9.724,3.783,3.783,0,0,1,3.216,1.481v-1.286h2.183v9.1c0,2.923-1.793,4.579-5.047,4.579C1042.014,288.834,1040.026,287.763,1039.734,285.424Zm7.639-5.612a2.823,2.823,0,1,0-2.826,3.021A2.86,2.86,0,0,0,1047.372,279.812Z" transform="translate(-957.473 -253.269)" fill="#fff"/>
    <path id="Path_22" data-name="Path 22" d="M1188.265,277.43h2.358l-4.228,10.834c-.721,1.832-1.52,2.689-3.917,2.689h-1.091v-1.949h1.033c1.032,0,1.4-.215,1.89-1.247l.1-.195-3.917-10.132h2.358l2.748,7.658,2.67-7.658Z" transform="translate(-1087.378 -255.544)" fill="#fff"/>
  </g>
</svg>
